<svg width="512" height="512" viewBox="0 0 512 512" fill="none" xmlns="http://www.w3.org/2000/svg">
<rect width="512" height="512" rx="209" fill="#FF6900"/>
<path d="M393.509 282.836C400.754 274.522 413.363 273.649 421.686 280.886C431.776 289.662 440.014 300.364 445.883 312.375C451.752 324.385 455.134 337.458 455.854 350.804C456.575 364.147 454.619 377.503 450.078 390.072C445.536 402.644 438.501 414.188 429.414 423.997C420.327 433.805 409.352 441.686 397.158 447.18C384.965 452.672 371.795 455.662 358.424 455.973C345.053 456.284 331.755 453.913 319.319 448.993C306.882 444.071 295.544 436.707 286.01 427.331C278.147 419.597 278.056 406.957 285.795 399.099C293.536 391.241 306.185 391.132 314.051 398.865C319.771 404.491 326.57 408.917 334.032 411.87C341.491 414.821 349.467 416.247 357.487 416.062C365.512 415.875 373.43 414.075 380.747 410.778C388.059 407.483 394.636 402.757 400.085 396.876C405.537 390.991 409.75 384.064 412.476 376.521C415.202 368.978 416.382 360.957 415.95 352.949C415.517 344.943 413.48 337.107 409.959 329.903C406.439 322.699 401.511 316.274 395.46 311.01C387.136 303.77 386.264 291.153 393.509 282.836ZM90.2124 280.75C98.4843 273.458 111.107 274.244 118.409 282.505C125.712 290.772 124.927 303.401 116.653 310.698C110.666 315.979 105.798 322.403 102.33 329.591C98.8617 336.78 96.8619 344.588 96.4567 352.559C96.0514 360.53 97.2474 368.51 99.9691 376.014C102.69 383.513 106.883 390.394 112.302 396.252C117.724 402.113 124.268 406.835 131.542 410.135C138.815 413.434 146.68 415.255 154.665 415.477C162.648 415.698 170.598 414.312 178.042 411.421C185.486 408.53 192.285 404.181 198.024 398.631C205.954 390.967 218.606 391.178 226.279 399.099C233.947 407.022 233.738 419.665 225.811 427.331C216.247 436.58 204.927 443.824 192.521 448.642C180.113 453.46 166.86 455.757 153.553 455.388C140.245 455.019 127.136 451.997 115.014 446.497C102.892 440.998 91.9901 433.122 82.9534 423.354C73.9188 413.587 66.9215 402.108 62.3863 389.604C57.8521 377.1 55.8764 363.814 56.5517 350.531C57.2274 337.246 60.5467 324.221 66.328 312.238C72.1092 300.258 80.2329 289.551 90.2124 280.75ZM341.76 142.065C349.563 134.273 362.213 134.27 370.015 142.065C377.816 149.86 377.813 162.5 370.015 170.297L315.924 224.344V287.671L370.015 341.718C377.816 349.514 377.813 362.153 370.015 369.95C362.212 377.747 349.563 377.747 341.76 369.95L309.426 337.643C302.298 348.579 289.995 355.832 275.96 355.834H235.997C221.961 355.834 209.621 348.599 202.492 337.663L170.198 369.95C162.395 377.747 149.746 377.747 141.942 369.95C134.139 362.154 134.139 349.515 141.942 341.718L196.034 287.671V224.344L141.942 170.297C134.139 162.5 134.139 149.862 141.942 142.065C149.746 134.273 162.396 134.27 170.198 142.065L202.492 174.333C209.623 163.407 221.969 156.181 235.997 156.181H275.96C289.987 156.183 302.296 163.428 309.426 174.353L341.76 142.065ZM235.997 315.904H275.96V196.112H235.997V315.904ZM358.346 56.3934C371.676 56.7218 384.808 59.7091 396.963 65.1867C409.117 70.6646 420.052 78.5256 429.121 88.2911C438.192 98.0606 445.228 109.556 449.786 122.08C454.341 134.6 456.33 147.907 455.659 161.211C454.988 174.518 451.657 187.562 445.864 199.563C440.068 211.565 431.929 222.301 421.921 231.11C413.64 238.394 401.017 237.588 393.724 229.316C386.431 221.043 387.223 208.431 395.5 201.142C401.503 195.858 406.404 189.429 409.881 182.23C413.358 175.028 415.351 167.189 415.754 159.203C416.156 151.221 414.955 143.239 412.223 135.728C409.488 128.214 405.274 121.313 399.831 115.451C394.39 109.591 387.826 104.875 380.533 101.588C373.239 98.3011 365.35 96.5208 357.351 96.3241C349.354 96.1283 341.399 97.5333 333.954 100.458C326.508 103.383 319.716 107.759 313.992 113.345C306.098 121.049 293.448 120.901 285.737 113.014C278.027 105.126 278.176 92.4861 286.068 84.7816C295.609 75.4698 306.926 68.1706 319.339 63.2955C331.751 58.4208 345.014 56.0655 358.346 56.3934ZM153.768 56.0229C167.151 55.7356 180.456 58.1503 192.892 63.1005C205.326 68.0508 216.644 75.437 226.162 84.8401C234.009 92.5932 234.078 105.251 226.318 113.092C218.559 120.925 205.908 120.996 198.063 113.248C192.351 107.604 185.563 103.155 178.101 100.185C170.639 97.2145 162.656 95.7812 154.626 95.9536C146.595 96.1266 138.674 97.9092 131.347 101.198C124.02 104.488 117.432 109.217 111.97 115.1C106.507 120.984 102.273 127.908 99.5398 135.455C96.8087 142.999 95.6183 151.017 96.0469 159.028C96.4761 167.043 98.5135 174.9 102.037 182.113C105.561 189.324 110.515 195.757 116.575 201.025C124.893 208.263 125.765 220.863 118.526 229.179C111.283 237.498 98.6552 238.386 90.3294 231.149C80.2296 222.368 72.0057 211.642 66.1328 199.621C60.2609 187.602 56.8583 174.528 56.142 161.172C55.4267 147.815 57.421 134.444 61.9765 121.866C66.5316 109.289 73.5575 97.7464 82.6607 87.9402C91.766 78.1329 102.762 70.2593 114.975 64.7773C127.187 59.2953 140.382 56.3113 153.768 56.0229Z" fill="white"/>
</svg>
