<svg width="686" height="208" viewBox="0 0 686 208" fill="none" xmlns="http://www.w3.org/2000/svg">
<rect width="208" height="208" rx="84" fill="#FF6900"/>
<path d="M159.863 114.902C162.806 111.524 167.929 111.17 171.31 114.11C175.409 117.675 178.756 122.023 181.14 126.902C183.524 131.782 184.898 137.092 185.191 142.514C185.483 147.935 184.689 153.36 182.844 158.467C180.999 163.574 178.141 168.264 174.449 172.249C170.758 176.233 166.299 179.435 161.346 181.667C156.392 183.898 151.042 185.113 145.61 185.239C140.178 185.365 134.775 184.402 129.723 182.403C124.671 180.404 120.065 177.412 116.191 173.603C112.997 170.461 112.96 165.326 116.104 162.134C119.249 158.942 124.388 158.897 127.583 162.039C129.907 164.324 132.669 166.122 135.701 167.322C138.731 168.521 141.971 169.101 145.229 169.025C148.489 168.949 151.706 168.218 154.679 166.879C157.649 165.54 160.321 163.62 162.535 161.231C164.75 158.84 166.461 156.026 167.568 152.962C168.676 149.897 169.155 146.639 168.98 143.385C168.804 140.133 167.976 136.95 166.546 134.023C165.116 131.097 163.114 128.486 160.656 126.348C157.274 123.407 156.92 118.281 159.863 114.902ZM36.6488 114.055C40.0092 111.092 45.1371 111.412 48.1037 114.768C51.0705 118.126 50.7515 123.257 47.3903 126.221C44.9582 128.366 42.9805 130.976 41.5716 133.896C40.1626 136.817 39.3502 139.989 39.1855 143.227C39.0209 146.465 39.5068 149.707 40.6124 152.756C41.718 155.802 43.4211 158.598 45.6225 160.978C47.8253 163.359 50.484 165.277 53.4388 166.617C56.3936 167.958 59.5889 168.697 62.8327 168.787C66.0758 168.877 69.3056 168.314 72.3296 167.14C75.3537 165.965 78.1159 164.199 80.4472 161.944C83.6686 158.83 88.8085 158.916 91.926 162.134C95.0411 165.353 94.956 170.489 91.7357 173.603C87.8504 177.361 83.2515 180.303 78.2117 182.261C73.1708 184.218 67.7869 185.151 62.3809 185.001C56.9743 184.851 51.6491 183.624 46.7244 181.389C41.8 179.155 37.371 175.956 33.6998 171.987C30.0295 168.02 27.1869 163.356 25.3444 158.277C23.5024 153.197 22.6998 147.799 22.9741 142.403C23.2486 137.006 24.5971 131.715 26.9457 126.847C29.2943 121.98 32.5946 117.63 36.6488 114.055ZM138.84 57.7139C142.01 54.5483 147.149 54.547 150.319 57.7139C153.488 60.8808 153.487 66.0157 150.319 69.1832L128.344 91.1397V116.867L150.319 138.823C153.488 141.99 153.487 147.125 150.319 150.292C147.149 153.46 142.01 153.46 138.84 150.292L125.704 137.168C122.809 141.61 117.81 144.557 112.109 144.558H95.8738C90.1715 144.558 85.1587 141.619 82.2626 137.176L69.1429 150.292C65.9729 153.46 60.8342 153.46 57.6641 150.292C54.494 147.125 54.494 141.991 57.6641 138.823L79.6386 116.867V91.1397L57.6641 69.1832C54.494 66.0157 54.494 60.8814 57.6641 57.7139C60.8344 54.5483 65.9734 54.547 69.1429 57.7139L82.2626 70.8228C85.1594 66.3841 90.1748 63.4486 95.8738 63.4486H112.109C117.807 63.4493 122.808 66.3924 125.704 70.8308L138.84 57.7139ZM95.8738 128.336H112.109V79.6704H95.8738V128.336ZM145.578 22.9098C150.993 23.0432 156.328 24.2568 161.266 26.4821C166.204 28.7075 170.646 31.901 174.33 35.8683C178.015 39.8371 180.874 44.5073 182.725 49.595C184.576 54.6812 185.384 60.087 185.112 65.4921C184.839 70.898 183.486 76.1972 181.132 81.0724C178.778 85.9482 175.471 90.3099 171.405 93.8882C168.041 96.8476 162.913 96.52 159.95 93.1595C156.988 89.7988 157.309 84.6751 160.672 81.714C163.111 79.5674 165.102 76.9555 166.514 74.0308C167.927 71.1053 168.737 67.9204 168.9 64.6763C169.064 61.4337 168.576 58.191 167.465 55.1396C166.354 52.087 164.642 49.2833 162.432 46.902C160.221 44.5212 157.554 42.6057 154.591 41.2703C151.628 39.9348 148.423 39.2116 145.174 39.1316C141.925 39.0521 138.693 39.6229 135.669 40.8109C132.644 41.9992 129.885 43.777 127.559 46.0465C124.352 49.1762 119.213 49.1161 116.081 45.9119C112.949 42.7075 113.009 37.5725 116.215 34.4425C120.091 30.6596 124.689 27.6943 129.731 25.7138C134.774 23.7335 140.162 22.7766 145.578 22.9098ZM62.4681 22.7593C67.9049 22.6426 73.3104 23.6236 78.3623 25.6346C83.4138 27.6456 88.0117 30.6463 91.8784 34.4663C95.0662 37.616 95.0941 42.7583 91.9418 45.9435C88.7897 49.1258 83.6501 49.1544 80.4631 46.0069C78.1426 43.7142 75.3851 41.9068 72.3534 40.7C69.3222 39.4934 66.0789 38.9111 62.8169 38.9812C59.5542 39.0514 56.3364 39.7756 53.3596 41.1119C50.3833 42.4481 47.7068 44.3692 45.4877 46.7594C43.2685 49.1498 41.5484 51.9628 40.438 55.0287C39.3285 58.0935 38.8449 61.3505 39.019 64.605C39.1934 67.8611 40.0211 71.053 41.4527 73.9832C42.8843 76.913 44.8969 79.5265 47.3586 81.6664C50.7377 84.6067 51.092 89.7255 48.1513 93.1041C45.2087 96.4836 40.0787 96.8443 36.6963 93.9041C32.5933 90.3371 29.2523 85.9795 26.8665 81.0961C24.481 76.2134 23.0987 70.9019 22.8077 65.4763C22.5171 60.0497 23.3273 54.618 25.1779 49.5079C27.0285 44.3985 29.8827 39.7095 33.5809 35.7257C37.28 31.7415 41.7472 28.5428 46.7085 26.3158C51.6699 24.0887 57.0303 22.8764 62.4681 22.7593Z" fill="white"/>
<path d="M288.136 151H267.045L299.182 57.9091H324.545L356.636 151H335.545L312.227 79.1818H311.5L288.136 151ZM286.818 114.409H336.636V129.773H286.818V114.409ZM367.477 177.182V81.1818H386.568V92.9091H387.432C388.28 91.0303 389.508 89.1212 391.114 87.1818C392.75 85.2121 394.871 83.5758 397.477 82.2727C400.114 80.9394 403.386 80.2727 407.295 80.2727C412.386 80.2727 417.083 81.6061 421.386 84.2727C425.689 86.9091 429.129 90.8939 431.705 96.2273C434.28 101.53 435.568 108.182 435.568 116.182C435.568 123.97 434.311 130.545 431.795 135.909C429.311 141.242 425.917 145.288 421.614 148.045C417.341 150.773 412.553 152.136 407.25 152.136C403.492 152.136 400.295 151.515 397.659 150.273C395.053 149.03 392.917 147.47 391.25 145.591C389.583 143.682 388.311 141.758 387.432 139.818H386.841V177.182H367.477ZM386.432 116.091C386.432 120.242 387.008 123.864 388.159 126.955C389.311 130.045 390.977 132.455 393.159 134.182C395.341 135.879 397.992 136.727 401.114 136.727C404.265 136.727 406.932 135.864 409.114 134.136C411.295 132.379 412.947 129.955 414.068 126.864C415.22 123.742 415.795 120.152 415.795 116.091C415.795 112.061 415.235 108.515 414.114 105.455C412.992 102.394 411.341 100 409.159 98.2727C406.977 96.5455 404.295 95.6818 401.114 95.6818C397.962 95.6818 395.295 96.5151 393.114 98.1818C390.962 99.8485 389.311 102.212 388.159 105.273C387.008 108.333 386.432 111.939 386.432 116.091ZM448.477 151V81.1818H467.841V151H448.477ZM458.205 72.1818C455.326 72.1818 452.856 71.2273 450.795 69.3182C448.765 67.3788 447.75 65.0606 447.75 62.3636C447.75 59.697 448.765 57.4091 450.795 55.5C452.856 53.5606 455.326 52.5909 458.205 52.5909C461.083 52.5909 463.538 53.5606 465.568 55.5C467.629 57.4091 468.659 59.697 468.659 62.3636C468.659 65.0606 467.629 67.3788 465.568 69.3182C463.538 71.2273 461.083 72.1818 458.205 72.1818ZM499.761 151H478.67L510.807 57.9091H536.17L568.261 151H547.17L523.852 79.1818H523.125L499.761 151ZM498.443 114.409H548.261V129.773H498.443V114.409ZM579.102 81.1818H598.466V154.455C598.466 159.848 597.405 164.212 595.284 167.545C593.163 170.879 590.117 173.318 586.148 174.864C582.208 176.409 577.496 177.182 572.011 177.182C571.345 177.182 570.708 177.167 570.102 177.136C569.466 177.136 568.799 177.121 568.102 177.091V161.955C568.617 161.985 569.072 162 569.466 162C569.83 162.03 570.223 162.045 570.648 162.045C573.769 162.045 575.951 161.379 577.193 160.045C578.466 158.742 579.102 156.773 579.102 154.136V81.1818ZM588.739 72.1818C585.89 72.1818 583.436 71.2273 581.375 69.3182C579.314 67.3788 578.284 65.0606 578.284 62.3636C578.284 59.697 579.314 57.4091 581.375 55.5C583.436 53.5606 585.89 52.5909 588.739 52.5909C591.648 52.5909 594.117 53.5606 596.148 55.5C598.208 57.4091 599.239 59.697 599.239 62.3636C599.239 65.0606 598.208 67.3788 596.148 69.3182C594.117 71.2273 591.648 72.1818 588.739 72.1818ZM658.75 121.273V81.1818H678.114V151H659.523V138.318H658.795C657.22 142.409 654.598 145.697 650.932 148.182C647.295 150.667 642.856 151.909 637.614 151.909C632.947 151.909 628.841 150.848 625.295 148.727C621.75 146.606 618.977 143.591 616.977 139.682C615.008 135.773 614.008 131.091 613.977 125.636V81.1818H633.341V122.182C633.371 126.303 634.477 129.561 636.659 131.955C638.841 134.348 641.765 135.545 645.432 135.545C647.765 135.545 649.947 135.015 651.977 133.955C654.008 132.864 655.644 131.258 656.886 129.136C658.159 127.015 658.78 124.394 658.75 121.273Z" fill="black"/>
</svg>
